<?xml version="1.0" standalone="no"?>
<!DOCTYPE svg PUBLIC "-//W3C//DTD SVG 20010904//EN"
 "http://www.w3.org/TR/2001/REC-SVG-20010904/DTD/svg10.dtd">
<svg version="1.0" xmlns="http://www.w3.org/2000/svg"
 width="700.000000pt" height="700.000000pt" viewBox="0 0 700.000000 700.000000"
 preserveAspectRatio="xMidYMid meet">
<metadata>
Created by potrace 1.11, written by Peter Selinger 2001-2013
</metadata>
<g transform="translate(0.000000,700.000000) scale(0.100000,-0.100000)"
fill="#000000" stroke="none">
<path d="M3278 6995 c-2 -1 -42 -5 -89 -9 -47 -4 -95 -8 -105 -10 -10 -2 -46
-7 -79 -12 -33 -4 -62 -8 -65 -9 -3 -1 -25 -5 -50 -9 -25 -5 -54 -10 -65 -12
-11 -2 -33 -7 -50 -10 -103 -18 -425 -112 -510 -149 -16 -7 -61 -25 -99 -39
-92 -36 -282 -129 -386 -189 -47 -27 -101 -58 -120 -69 -109 -62 -341 -235
-480 -358 -571 -504 -981 -1223 -1116 -1955 -9 -49 -17 -97 -19 -105 -4 -20
-18 -120 -21 -145 -26 -237 -26 -664 1 -826 2 -13 6 -46 10 -74 11 -92 16
-119 47 -260 113 -523 353 -1027 689 -1445 51 -63 102 -124 113 -136 227 -237
373 -371 536 -489 30 -22 57 -43 58 -47 2 -5 8 -8 13 -8 6 0 39 -20 75 -45 35
-25 66 -45 68 -45 3 0 24 -13 48 -29 71 -47 404 -221 423 -221 3 0 24 -9 48
-19 208 -95 611 -205 867 -237 14 -2 41 -5 60 -8 141 -22 549 -29 725 -13 711
64 1393 346 1940 802 121 101 281 257 378 370 33 39 63 72 66 75 5 4 54 65 83
105 4 6 18 24 31 40 97 125 232 343 323 525 162 323 264 635 324 990 38 230
45 310 45 575 0 245 -13 423 -39 562 -2 10 -11 59 -21 108 -157 841 -655 1633
-1345 2141 -151 112 -198 143 -355 233 -333 191 -796 359 -1125 407 -19 3 -60
9 -91 15 -31 5 -81 12 -110 15 -30 3 -67 8 -84 10 -33 5 -541 14 -547 9z m942
-1557 c14 -4 59 -12 100 -18 41 -6 90 -16 108 -22 18 -5 39 -11 45 -12 7 -2
19 -5 27 -8 8 -3 44 -16 79 -28 206 -71 391 -231 483 -415 20 -40 58 -139 63
-165 20 -99 28 -176 28 -265 1 -102 -8 -229 -18 -265 -2 -8 -6 -26 -9 -40 -12
-65 -29 -131 -53 -200 -145 -426 -460 -726 -872 -831 -41 -10 -76 -21 -79 -23
-2 -3 29 -59 70 -126 40 -67 80 -133 89 -148 36 -61 304 -501 339 -557 21 -33
122 -199 225 -370 103 -170 196 -321 205 -335 9 -14 20 -33 23 -43 6 -16 -28
-17 -621 -17 l-628 0 -66 138 c-37 75 -93 193 -126 262 -33 69 -93 193 -133
275 -40 83 -73 152 -74 155 0 3 -19 43 -42 90 -99 205 -193 402 -233 488 -44
93 -59 110 -61 70 -2 -33 -5 -53 -22 -153 -9 -49 -19 -108 -22 -130 -3 -23 -7
-50 -9 -60 -2 -11 -7 -42 -10 -68 -4 -27 -9 -57 -11 -67 -2 -9 -6 -35 -9 -56
-4 -22 -11 -64 -16 -94 -6 -30 -12 -77 -15 -105 -3 -27 -8 -57 -10 -65 -4 -15
-42 -254 -51 -320 -3 -19 -17 -107 -32 -195 l-27 -160 -506 -3 -505 -2 22 142
c39 250 73 467 104 663 17 105 33 208 36 230 2 22 6 47 9 55 4 14 11 63 20
130 2 17 6 43 9 58 3 15 8 43 10 62 3 19 7 44 10 55 2 11 7 43 10 70 4 28 18
118 31 200 13 83 26 166 29 185 3 19 8 46 10 60 5 27 13 78 21 138 3 20 8 46
10 58 3 12 7 39 10 60 4 21 13 82 21 134 8 52 17 111 20 130 3 19 9 58 14 85
5 28 12 68 15 90 3 22 7 51 10 65 2 14 7 43 10 65 3 22 10 67 15 100 5 33 12
78 15 100 3 22 10 65 15 95 5 30 12 69 14 85 30 191 58 365 62 385 2 14 7 45
10 70 3 25 8 54 10 65 7 34 12 67 24 150 6 44 14 88 16 98 6 17 43 18 872 14
477 -2 878 -6 892 -9z"/>
<path d="M3362 4670 c-13 -3 -22 -7 -21 -10 2 -4 -12 -115 -16 -130 -1 -3 -5
-30 -9 -60 -4 -30 -11 -77 -16 -105 -6 -27 -12 -70 -15 -95 -3 -25 -7 -56 -10
-70 -2 -14 -7 -38 -9 -55 -7 -45 -18 -118 -21 -135 -2 -8 -8 -51 -15 -95 -7
-44 -13 -87 -15 -95 -1 -8 -6 -39 -10 -67 l-7 -53 149 5 c200 7 310 25 399 65
24 11 46 20 49 20 3 0 33 18 66 40 133 91 219 260 222 439 3 228 -129 352
-418 390 -92 13 -270 19 -303 11z"/>
</g>
</svg>
